<?xml version="1.0" encoding="UTF-8"?>
<!DOCTYPE svg PUBLIC "-//W3C//DTD SVG 1.1//EN" "http://www.w3.org/Graphics/SVG/1.1/DTD/svg11.dtd">
<svg xmlns="http://www.w3.org/2000/svg" xmlns:xlink="http://www.w3.org/1999/xlink" version="1.1" width="390px" height="251px" viewBox="-0.5 -0.5 390 251" style="background-color: rgb(255, 255, 255);"><defs/><g><path d="M 44 22 L 21.1 22 L 21.13 40.25" fill="none" stroke="#7ea6e0" stroke-width="3" stroke-miterlimit="10" pointer-events="stroke"/><path d="M 104 22 L 126.9 22 L 126.88 39.75" fill="none" stroke="#7ea6e0" stroke-width="3" stroke-miterlimit="10" pointer-events="stroke"/><rect x="44" y="1" width="60" height="28" fill="#7ea6e0" stroke="#7ea6e0" pointer-events="all"/><path d="M 44 118.13 L 21.1 118.1 L 21.13 100.25" fill="none" stroke="#7ea6e0" stroke-width="3" stroke-miterlimit="10" pointer-events="stroke"/><path d="M 104 118.13 L 126.9 118.1 L 126.88 99.75" fill="none" stroke="#7ea6e0" stroke-width="3" stroke-miterlimit="10" pointer-events="stroke"/><rect x="44" y="111" width="60" height="28.5" fill="#7ea6e0" stroke="#7ea6e0" pointer-events="all"/><rect x="-16" y="56" width="60" height="28.5" fill="#7ea6e0" stroke="#7ea6e0" transform="rotate(90,14,70.25)" pointer-events="all"/><rect x="104" y="55.5" width="60" height="28.5" fill="#7ea6e0" stroke="#7ea6e0" transform="rotate(90,134,69.75)" pointer-events="all"/><path d="M 164 21.5 L 141.1 21.5 L 141.13 39.75" fill="none" stroke="#7ea6e0" stroke-width="3" stroke-miterlimit="10" pointer-events="stroke"/><path d="M 224 21.5 L 246.9 21.5 L 246.88 39.25" fill="none" stroke="#7ea6e0" stroke-width="3" stroke-miterlimit="10" pointer-events="stroke"/><rect x="164" y="0.5" width="60" height="28" fill="#7ea6e0" stroke="#7ea6e0" pointer-events="all"/><path d="M 164 117.63 L 141.1 117.6 L 141.13 99.75" fill="none" stroke="#7ea6e0" stroke-width="3" stroke-miterlimit="10" pointer-events="stroke"/><path d="M 224 117.63 L 246.9 117.6 L 246.88 99.25" fill="none" stroke="#7ea6e0" stroke-width="3" stroke-miterlimit="10" pointer-events="stroke"/><rect x="164" y="110.5" width="60" height="28.5" fill="#7ea6e0" stroke="#7ea6e0" pointer-events="all"/><rect x="104" y="55.5" width="60" height="28.5" fill="#7ea6e0" stroke="#7ea6e0" transform="rotate(90,134,69.75)" pointer-events="all"/><rect x="224" y="55" width="60" height="28.5" fill="#7ea6e0" stroke="#7ea6e0" transform="rotate(90,254,69.25)" pointer-events="all"/><path d="M 44 132.5 L 21.1 132.5 L 21.13 150.75" fill="none" stroke="#7ea6e0" stroke-width="3" stroke-miterlimit="10" pointer-events="stroke"/><path d="M 104 132.5 L 126.9 132.5 L 126.88 150.25" fill="none" stroke="#7ea6e0" stroke-width="3" stroke-miterlimit="10" pointer-events="stroke"/><rect x="44" y="111.5" width="60" height="28" fill="#7ea6e0" stroke="#7ea6e0" pointer-events="all"/><path d="M 44 228.63 L 21.1 228.6 L 21.13 210.75" fill="none" stroke="#7ea6e0" stroke-width="3" stroke-miterlimit="10" pointer-events="stroke"/><path d="M 104 228.63 L 126.9 228.6 L 126.88 210.25" fill="none" stroke="#7ea6e0" stroke-width="3" stroke-miterlimit="10" pointer-events="stroke"/><rect x="44" y="221.5" width="60" height="28.5" fill="#7ea6e0" stroke="#7ea6e0" pointer-events="all"/><rect x="-16" y="166.5" width="60" height="28.5" fill="#7ea6e0" stroke="#7ea6e0" transform="rotate(90,14,180.75)" pointer-events="all"/><rect x="104" y="166" width="60" height="28.5" fill="#7ea6e0" stroke="#7ea6e0" transform="rotate(90,134,180.25)" pointer-events="all"/><path d="M 164 132 L 141.1 132 L 141.13 150.25" fill="none" stroke="#7ea6e0" stroke-width="3" stroke-miterlimit="10" pointer-events="stroke"/><path d="M 224 132 L 246.9 132 L 246.88 149.75" fill="none" stroke="#7ea6e0" stroke-width="3" stroke-miterlimit="10" pointer-events="stroke"/><rect x="164" y="111" width="60" height="28" fill="#7ea6e0" stroke="#7ea6e0" pointer-events="all"/><path d="M 164 228.13 L 141.1 228.1 L 141.13 210.25" fill="none" stroke="#7ea6e0" stroke-width="3" stroke-miterlimit="10" pointer-events="stroke"/><path d="M 224 228.13 L 246.9 228.1 L 246.88 209.75" fill="none" stroke="#7ea6e0" stroke-width="3" stroke-miterlimit="10" pointer-events="stroke"/><rect x="164" y="221" width="60" height="28.5" fill="#7ea6e0" stroke="#7ea6e0" pointer-events="all"/><rect x="104" y="166" width="60" height="28.5" fill="#7ea6e0" stroke="#7ea6e0" transform="rotate(90,134,180.25)" pointer-events="all"/><rect x="224" y="165.5" width="60" height="28.5" fill="#7ea6e0" stroke="#7ea6e0" transform="rotate(90,254,179.75)" pointer-events="all"/><rect x="224" y="56" width="60" height="28.5" fill="#7ea6e0" stroke="#7ea6e0" transform="rotate(90,254,70.25)" pointer-events="all"/><path d="M 284 22 L 261.1 22 L 261.13 40.25" fill="none" stroke="#7ea6e0" stroke-width="3" stroke-miterlimit="10" pointer-events="stroke"/><path d="M 344 22 L 366.9 22 L 366.88 39.75" fill="none" stroke="#7ea6e0" stroke-width="3" stroke-miterlimit="10" pointer-events="stroke"/><rect x="284" y="1" width="60" height="28" fill="#7ea6e0" stroke="#7ea6e0" pointer-events="all"/><path d="M 284 118.13 L 261.1 118.1 L 261.13 100.25" fill="none" stroke="#7ea6e0" stroke-width="3" stroke-miterlimit="10" pointer-events="stroke"/><path d="M 344 118.13 L 366.9 118.1 L 366.88 99.75" fill="none" stroke="#7ea6e0" stroke-width="3" stroke-miterlimit="10" pointer-events="stroke"/><rect x="284" y="111" width="60" height="28.5" fill="#7ea6e0" stroke="#7ea6e0" pointer-events="all"/><rect x="224" y="56" width="60" height="28.5" fill="#7ea6e0" stroke="#7ea6e0" transform="rotate(90,254,70.25)" pointer-events="all"/><rect x="344" y="55.5" width="60" height="28.5" fill="#7ea6e0" stroke="#7ea6e0" transform="rotate(90,374,69.75)" pointer-events="all"/><rect x="224" y="166.5" width="60" height="28.5" fill="#7ea6e0" stroke="#7ea6e0" transform="rotate(90,254,180.75)" pointer-events="all"/><path d="M 284 132.5 L 261.1 132.5 L 261.13 150.75" fill="none" stroke="#7ea6e0" stroke-width="3" stroke-miterlimit="10" pointer-events="stroke"/><path d="M 344 132.5 L 366.9 132.5 L 366.88 150.25" fill="none" stroke="#7ea6e0" stroke-width="3" stroke-miterlimit="10" pointer-events="stroke"/><rect x="284" y="111.5" width="60" height="28" fill="#7ea6e0" stroke="#7ea6e0" pointer-events="all"/><path d="M 284 228.63 L 261.1 228.6 L 261.13 210.75" fill="none" stroke="#7ea6e0" stroke-width="3" stroke-miterlimit="10" pointer-events="stroke"/><path d="M 344 228.63 L 366.9 228.6 L 366.88 210.25" fill="none" stroke="#7ea6e0" stroke-width="3" stroke-miterlimit="10" pointer-events="stroke"/><rect x="284" y="221.5" width="60" height="28.5" fill="#7ea6e0" stroke="#7ea6e0" pointer-events="all"/><rect x="224" y="166.5" width="60" height="28.5" fill="#7ea6e0" stroke="#7ea6e0" transform="rotate(90,254,180.75)" pointer-events="all"/><rect x="344" y="166" width="60" height="28.5" fill="#7ea6e0" stroke="#7ea6e0" transform="rotate(90,374,180.25)" pointer-events="all"/></g></svg>