<?xml version="1.0" encoding="UTF-8"?>
<!DOCTYPE svg PUBLIC "-//W3C//DTD SVG 1.1//EN" "http://www.w3.org/Graphics/SVG/1.1/DTD/svg11.dtd">
<svg xmlns="http://www.w3.org/2000/svg" xmlns:xlink="http://www.w3.org/1999/xlink" version="1.1" width="537px" height="424px" viewBox="-0.5 -0.5 537 424" style="background-color: rgb(255, 255, 255);"><defs/><g><path d="M 356.83 194.79 L 356.83 228.71" fill="none" stroke="#7ea6e0" stroke-width="3" stroke-miterlimit="10" pointer-events="stroke"/><rect x="318" y="151" width="60" height="28.5" fill="#7ea6e0" stroke="#7ea6e0" transform="rotate(60,348,165.25)" pointer-events="all"/><path d="M 209.17 280.67 L 238 301.13" fill="none" stroke="#7ea6e0" stroke-width="3" stroke-miterlimit="10" pointer-events="stroke"/><rect x="158" y="244" width="60" height="28.5" fill="#7ea6e0" stroke="#7ea6e0" transform="rotate(60,188,258.25)" pointer-events="all"/><path d="M 326.83 280.67 L 298 301.13" fill="none" stroke="#7ea6e0" stroke-width="3" stroke-miterlimit="10" pointer-events="stroke"/><rect x="318" y="244" width="60" height="28.5" fill="#7ea6e0" stroke="#7ea6e0" transform="rotate(-60,348,258.25)" pointer-events="all"/><path d="M 238 122.38 L 209.17 142.83" fill="none" stroke="#7ea6e0" stroke-width="3" stroke-miterlimit="10" pointer-events="stroke"/><path d="M 298 122.38 L 326.83 142.83" fill="none" stroke="#7ea6e0" stroke-width="3" stroke-miterlimit="10" pointer-events="stroke"/><rect x="238" y="101" width="60" height="28.5" fill="#7ea6e0" stroke="#7ea6e0" pointer-events="all"/><rect x="238" y="294" width="60" height="28.5" fill="#7ea6e0" stroke="#7ea6e0" pointer-events="all"/><path d="M 179.17 194.79 L 179.17 228.71" fill="none" stroke="#7ea6e0" stroke-width="3" stroke-miterlimit="10" pointer-events="stroke"/><rect x="158" y="151" width="60" height="28.5" fill="#7ea6e0" stroke="#7ea6e0" transform="rotate(-60,188,165.25)" pointer-events="all"/><path d="M 516.83 287.29 L 516.83 321.21" fill="none" stroke="#7ea6e0" stroke-width="3" stroke-miterlimit="10" pointer-events="stroke"/><rect x="478" y="243.5" width="60" height="28.5" fill="#7ea6e0" stroke="#7ea6e0" transform="rotate(60,508,257.75)" pointer-events="all"/><path d="M 369.17 373.17 L 398 393.63" fill="none" stroke="#7ea6e0" stroke-width="3" stroke-miterlimit="10" pointer-events="stroke"/><path d="M 486.83 373.17 L 458 393.63" fill="none" stroke="#7ea6e0" stroke-width="3" stroke-miterlimit="10" pointer-events="stroke"/><rect x="478" y="336.5" width="60" height="28.5" fill="#7ea6e0" stroke="#7ea6e0" transform="rotate(-60,508,350.75)" pointer-events="all"/><path d="M 398 214.88 L 369.17 235.33" fill="none" stroke="#7ea6e0" stroke-width="3" stroke-miterlimit="10" pointer-events="stroke"/><path d="M 458 214.88 L 486.83 235.33" fill="none" stroke="#7ea6e0" stroke-width="3" stroke-miterlimit="10" pointer-events="stroke"/><rect x="398" y="193.5" width="60" height="28.5" fill="#7ea6e0" stroke="#7ea6e0" pointer-events="all"/><rect x="398" y="386.5" width="60" height="28.5" fill="#7ea6e0" stroke="#7ea6e0" pointer-events="all"/><rect x="318" y="243.5" width="60" height="28.5" fill="#7ea6e0" stroke="#7ea6e0" transform="rotate(-60,348,257.75)" pointer-events="all"/><path d="M 196.83 287.79 L 196.83 329.21" fill="none" stroke="#7ea6e0" stroke-width="3" stroke-miterlimit="10" pointer-events="stroke"/><rect x="158" y="344.5" width="60" height="28.5" fill="#7ea6e0" stroke="#7ea6e0" transform="rotate(-60,188,358.75)" pointer-events="all"/><path d="M 339.17 328.71 L 339.17 287.79" fill="none" stroke="#7ea6e0" stroke-width="3" stroke-miterlimit="10" pointer-events="stroke"/><rect x="318" y="344" width="60" height="28.5" fill="#7ea6e0" stroke="#7ea6e0" transform="rotate(60,348,358.25)" pointer-events="all"/><path d="M 238 315.38 L 209.17 335.83" fill="none" stroke="#7ea6e0" stroke-width="3" stroke-miterlimit="10" pointer-events="stroke"/><path d="M 298 315.38 L 326.83 335.83" fill="none" stroke="#7ea6e0" stroke-width="3" stroke-miterlimit="10" pointer-events="stroke"/><rect x="238" y="294" width="60" height="28.5" fill="#7ea6e0" stroke="#7ea6e0" pointer-events="all"/><rect x="158" y="344" width="60" height="28.5" fill="#7ea6e0" stroke="#7ea6e0" transform="rotate(-60,188,358.25)" pointer-events="all"/><rect x="318" y="51" width="60" height="28.5" fill="#7ea6e0" stroke="#7ea6e0" transform="rotate(-60,348,65.25)" pointer-events="all"/><path d="M 516.83 94.29 L 516.83 128.21" fill="none" stroke="#7ea6e0" stroke-width="3" stroke-miterlimit="10" pointer-events="stroke"/><rect x="478" y="50.5" width="60" height="28.5" fill="#7ea6e0" stroke="#7ea6e0" transform="rotate(60,508,64.75)" pointer-events="all"/><path d="M 369.17 180.17 L 398 200.63" fill="none" stroke="#7ea6e0" stroke-width="3" stroke-miterlimit="10" pointer-events="stroke"/><path d="M 486.83 180.17 L 458 200.63" fill="none" stroke="#7ea6e0" stroke-width="3" stroke-miterlimit="10" pointer-events="stroke"/><path d="M 499.17 187.29 L 499.17 228.21" fill="none" stroke="#7ea6e0" stroke-width="3" stroke-miterlimit="10" pointer-events="stroke"/><rect x="478" y="143.5" width="60" height="28.5" fill="#7ea6e0" stroke="#7ea6e0" transform="rotate(-60,508,157.75)" pointer-events="all"/><path d="M 398 21.88 L 369.17 42.33" fill="none" stroke="#7ea6e0" stroke-width="3" stroke-miterlimit="10" pointer-events="stroke"/><path d="M 458 21.88 L 486.83 42.33" fill="none" stroke="#7ea6e0" stroke-width="3" stroke-miterlimit="10" pointer-events="stroke"/><rect x="398" y="0.5" width="60" height="28.5" fill="#7ea6e0" stroke="#7ea6e0" pointer-events="all"/><rect x="398" y="193.5" width="60" height="28.5" fill="#7ea6e0" stroke="#7ea6e0" pointer-events="all"/><path d="M 339.17 94.29 L 339.17 135.71" fill="none" stroke="#7ea6e0" stroke-width="3" stroke-miterlimit="10" pointer-events="stroke"/><rect x="318" y="50.5" width="60" height="28.5" fill="#7ea6e0" stroke="#7ea6e0" transform="rotate(-60,348,64.75)" pointer-events="all"/><path d="M 196.83 101.29 L 197 135.5" fill="none" stroke="#7ea6e0" stroke-width="3" stroke-miterlimit="10" pointer-events="stroke"/><rect x="158" y="57.5" width="60" height="28.5" fill="#7ea6e0" stroke="#7ea6e0" transform="rotate(60,188,71.75)" pointer-events="all"/><rect x="238" y="100" width="60" height="28.5" fill="#7ea6e0" stroke="#7ea6e0" pointer-events="all"/><path d="M 209.17 86.67 L 238 107.13" fill="none" stroke="#7ea6e0" stroke-width="3" stroke-miterlimit="10" pointer-events="stroke"/><path d="M 326.83 86.67 L 298 107.13" fill="none" stroke="#7ea6e0" stroke-width="3" stroke-miterlimit="10" pointer-events="stroke"/><path d="M 339.17 93.79 L 339 134.5" fill="none" stroke="#7ea6e0" stroke-width="3" stroke-miterlimit="10" pointer-events="stroke"/><rect x="318" y="50" width="60" height="28.5" fill="#7ea6e0" stroke="#7ea6e0" transform="rotate(-60,348,64.25)" pointer-events="all"/><rect x="238" y="100" width="60" height="28.5" fill="#7ea6e0" stroke="#7ea6e0" pointer-events="all"/><path d="M 36.83 201.29 L 37 235.5" fill="none" stroke="#7ea6e0" stroke-width="3" stroke-miterlimit="10" pointer-events="stroke"/><rect x="-2" y="157.5" width="60" height="28.5" fill="#7ea6e0" stroke="#7ea6e0" transform="rotate(60,28,171.75)" pointer-events="all"/><rect x="78" y="200" width="60" height="28.5" fill="#7ea6e0" stroke="#7ea6e0" pointer-events="all"/><rect x="-2" y="57.5" width="60" height="28.5" fill="#7ea6e0" stroke="#7ea6e0" transform="rotate(-60,28,71.75)" pointer-events="all"/><path d="M 196.83 100.79 L 196.83 134.71" fill="none" stroke="#7ea6e0" stroke-width="3" stroke-miterlimit="10" pointer-events="stroke"/><rect x="158" y="57" width="60" height="28.5" fill="#7ea6e0" stroke="#7ea6e0" transform="rotate(60,188,71.25)" pointer-events="all"/><path d="M 49.17 186.67 L 78 207.13" fill="none" stroke="#7ea6e0" stroke-width="3" stroke-miterlimit="10" pointer-events="stroke"/><path d="M 166.83 186.67 L 138 207.13" fill="none" stroke="#7ea6e0" stroke-width="3" stroke-miterlimit="10" pointer-events="stroke"/><path d="M 179.17 193.79 L 179 234.5" fill="none" stroke="#7ea6e0" stroke-width="3" stroke-miterlimit="10" pointer-events="stroke"/><rect x="158" y="150" width="60" height="28.5" fill="#7ea6e0" stroke="#7ea6e0" transform="rotate(-60,188,164.25)" pointer-events="all"/><path d="M 78 28.38 L 49.17 48.83" fill="none" stroke="#7ea6e0" stroke-width="3" stroke-miterlimit="10" pointer-events="stroke"/><path d="M 138 28.38 L 166.83 48.83" fill="none" stroke="#7ea6e0" stroke-width="3" stroke-miterlimit="10" pointer-events="stroke"/><rect x="78" y="7" width="60" height="28.5" fill="#7ea6e0" stroke="#7ea6e0" pointer-events="all"/><rect x="78" y="200" width="60" height="28.5" fill="#7ea6e0" stroke="#7ea6e0" pointer-events="all"/><path d="M 19.17 100.79 L 19.17 142.21" fill="none" stroke="#7ea6e0" stroke-width="3" stroke-miterlimit="10" pointer-events="stroke"/><rect x="-2" y="57" width="60" height="28.5" fill="#7ea6e0" stroke="#7ea6e0" transform="rotate(-60,28,71.25)" pointer-events="all"/><rect x="-2" y="352" width="60" height="28.5" fill="#7ea6e0" stroke="#7ea6e0" transform="rotate(60,28,366.25)" pointer-events="all"/><rect x="-2" y="244" width="60" height="28.5" fill="#7ea6e0" stroke="#7ea6e0" transform="rotate(-60,28,258.25)" pointer-events="all"/><path d="M 196.83 287.29 L 196.83 329.21" fill="none" stroke="#7ea6e0" stroke-width="3" stroke-miterlimit="10" pointer-events="stroke"/><rect x="158" y="243.5" width="60" height="28.5" fill="#7ea6e0" stroke="#7ea6e0" transform="rotate(60,188,257.75)" pointer-events="all"/><path d="M 166.83 381.17 L 138 401.63" fill="none" stroke="#7ea6e0" stroke-width="3" stroke-miterlimit="10" pointer-events="stroke"/><rect x="158" y="344.5" width="60" height="28.5" fill="#7ea6e0" stroke="#7ea6e0" transform="rotate(-60,188,358.75)" pointer-events="all"/><path d="M 78 221.38 L 49.17 235.33" fill="none" stroke="#7ea6e0" stroke-width="3" stroke-miterlimit="10" pointer-events="stroke"/><path d="M 138 221.38 L 166.83 235.33" fill="none" stroke="#7ea6e0" stroke-width="3" stroke-miterlimit="10" pointer-events="stroke"/><path d="M 78 401.63 L 49.17 388.67" fill="none" stroke="#7ea6e0" stroke-width="4" stroke-miterlimit="10" pointer-events="stroke"/><rect x="78" y="394.5" width="60" height="28.5" fill="#7ea6e0" stroke="#7ea6e0" pointer-events="all"/><path d="M 19.17 287.29 L 19.17 336.71" fill="none" stroke="#7ea6e0" stroke-width="3" stroke-miterlimit="10" pointer-events="stroke"/><rect x="-2" y="243.5" width="60" height="28.5" fill="#7ea6e0" stroke="#7ea6e0" transform="rotate(-60,28,257.75)" pointer-events="all"/></g></svg>