<?xml version="1.0" encoding="UTF-8"?>
<!DOCTYPE svg PUBLIC "-//W3C//DTD SVG 1.1//EN" "http://www.w3.org/Graphics/SVG/1.1/DTD/svg11.dtd">
<svg xmlns="http://www.w3.org/2000/svg" xmlns:xlink="http://www.w3.org/1999/xlink" version="1.1" width="281px" height="152px" viewBox="-0.5 -0.5 281 152" style="background-color: rgb(255, 255, 255);"><defs/><g><rect x="0" y="40" width="60" height="28" fill="#7ea6e0" stroke="#7ea6e0" pointer-events="all"/><rect x="0" y="122" width="60" height="28" fill="#7ea6e0" stroke="#7ea6e0" pointer-events="all"/><rect x="0" y="40" width="60" height="28" fill="#7ea6e0" stroke="#7ea6e0" pointer-events="all"/><path d="M 110 21 L 85 21 L 85 47 L 60 47" fill="none" stroke="#7ea6e0" stroke-width="3" stroke-miterlimit="10" pointer-events="stroke"/><path d="M 170 21 L 195 21 L 195 47 L 220 47" fill="none" stroke="#7ea6e0" stroke-width="3" stroke-miterlimit="10" pointer-events="stroke"/><rect x="110" y="0" width="60" height="28" fill="#7ea6e0" stroke="#7ea6e0" pointer-events="all"/><rect x="0" y="40" width="60" height="28" fill="#7ea6e0" stroke="#7ea6e0" pointer-events="all"/><path d="M 110 103 L 85 103 L 85 129 L 60 129" fill="none" stroke="#7ea6e0" stroke-width="3" stroke-miterlimit="10" pointer-events="stroke"/><path d="M 110 89 L 85 89 L 85 61 L 60 61" fill="none" stroke="#7ea6e0" stroke-width="3" stroke-miterlimit="10" pointer-events="stroke"/><path d="M 170 89 L 195 89 L 195 61 L 220 61" fill="none" stroke="#7ea6e0" stroke-width="3" stroke-miterlimit="10" pointer-events="stroke"/><path d="M 170 103 L 195 103 L 195 129 L 220 129" fill="none" stroke="#7ea6e0" stroke-width="3" stroke-miterlimit="10" pointer-events="stroke"/><rect x="110" y="82" width="60" height="28" fill="#7ea6e0" stroke="#7ea6e0" pointer-events="all"/><path d="M 60 143 L 220 143" fill="none" stroke="#7ea6e0" stroke-width="3" stroke-miterlimit="10" pointer-events="stroke"/><rect x="0" y="122" width="60" height="28" fill="#7ea6e0" stroke="#7ea6e0" pointer-events="all"/><rect x="0" y="40" width="60" height="28" fill="#7ea6e0" stroke="#7ea6e0" pointer-events="all"/><rect x="220" y="122" width="60" height="28" fill="#7ea6e0" stroke="#7ea6e0" pointer-events="all"/><rect x="220" y="40" width="60" height="28" fill="#7ea6e0" stroke="#7ea6e0" pointer-events="all"/></g></svg>