<?xml version="1.0" encoding="UTF-8"?>
<!DOCTYPE svg PUBLIC "-//W3C//DTD SVG 1.1//EN" "http://www.w3.org/Graphics/SVG/1.1/DTD/svg11.dtd">
<svg xmlns="http://www.w3.org/2000/svg" xmlns:xlink="http://www.w3.org/1999/xlink" version="1.1" width="356px" height="270px" viewBox="-0.5 -0.5 356 270" style="background-color: rgb(255, 255, 255);"><defs/><g><path d="M 147 247 L 118.1 247 L 118.06 223.48" fill="none" stroke="#7ea6e0" stroke-width="3" stroke-miterlimit="10" pointer-events="stroke"/><path d="M 207 247 L 235.9 247 L 235.94 223.48" fill="none" stroke="#7ea6e0" stroke-width="3" stroke-miterlimit="10" pointer-events="stroke"/><rect x="147" y="240" width="60" height="28" fill="#7ea6e0" stroke="#7ea6e0" pointer-events="all"/><rect x="197" y="180" width="60" height="28" fill="#7ea6e0" stroke="#7ea6e0" transform="rotate(60,227,194)" pointer-events="all"/><path d="M 148.06 171.52 L 205.94 171.52" fill="none" stroke="#7ea6e0" stroke-width="3" stroke-miterlimit="10" pointer-events="stroke"/><rect x="97" y="180" width="60" height="28" fill="#7ea6e0" stroke="#7ea6e0" transform="rotate(-240,127,194)" pointer-events="all"/><rect x="247" y="120" width="60" height="28" fill="#7ea6e0" stroke="#7ea6e0" transform="rotate(-180,277,134)" pointer-events="none"/><rect x="197" y="180" width="60" height="28" fill="#7ea6e0" stroke="#7ea6e0" transform="rotate(-120,227,194)" pointer-events="none"/><path d="M 247 141 L 218.1 141 L 218.06 164.52" fill="none" stroke="#7ea6e0" stroke-width="3" stroke-miterlimit="10" pointer-events="none"/><path d="M 305.93 216.48 L 248.06 216.48" fill="none" stroke="#7ea6e0" stroke-width="3" stroke-miterlimit="10" pointer-events="none"/><rect x="297" y="180" width="60" height="28" fill="#7ea6e0" stroke="#7ea6e0" transform="rotate(-420,327,194)" pointer-events="none"/><path d="M 307 141 L 335.9 141 L 335.93 164.52" fill="none" stroke="#7ea6e0" stroke-width="3" stroke-miterlimit="10" pointer-events="none"/><path d="M 247 127 L 218.1 127 L 218.06 103.48" fill="none" stroke="#7ea6e0" stroke-width="3" stroke-miterlimit="10" pointer-events="none"/><rect x="-3" y="180" width="60" height="28" fill="#7ea6e0" stroke="#7ea6e0" transform="rotate(60,27,194)" pointer-events="none"/><rect x="47" y="120" width="60" height="28" fill="#7ea6e0" stroke="#7ea6e0" transform="rotate(-180,77,134)" pointer-events="none"/><rect x="-3" y="180" width="60" height="28" fill="#7ea6e0" stroke="#7ea6e0" transform="rotate(-120,27,194)" pointer-events="none"/><path d="M 47 141 L 18.1 141 L 18.06 164.52" fill="none" stroke="#7ea6e0" stroke-width="3" stroke-miterlimit="10" pointer-events="none"/><path d="M 105.93 216.48 L 48.06 216.48" fill="none" stroke="#7ea6e0" stroke-width="3" stroke-miterlimit="10" pointer-events="none"/><rect x="97" y="180" width="60" height="28" fill="#7ea6e0" stroke="#7ea6e0" transform="rotate(-420,127,194)" pointer-events="none"/><path d="M 107 141 L 135.9 141 L 135.93 164.52" fill="none" stroke="#7ea6e0" stroke-width="3" stroke-miterlimit="10" pointer-events="none"/><path d="M 107 127 L 135.9 127 L 135.93 103.48" fill="none" stroke="#7ea6e0" stroke-width="3" stroke-miterlimit="10" pointer-events="none"/><path d="M 47 126.48 L 18.1 126.5 L 18.06 102.96" fill="none" stroke="#7ea6e0" stroke-width="3" stroke-miterlimit="10" pointer-events="none"/><path d="M 107 126.48 L 135.9 126.5 L 135.94 102.96" fill="none" stroke="#7ea6e0" stroke-width="3" stroke-miterlimit="10" pointer-events="none"/><rect x="47" y="119.48" width="60" height="28" fill="#7ea6e0" stroke="#7ea6e0" pointer-events="none"/><rect x="97" y="59.48" width="60" height="28" fill="#7ea6e0" stroke="#7ea6e0" transform="rotate(60,127,73.48)" pointer-events="none"/><path d="M 48.06 51 L 105.94 51" fill="none" stroke="#7ea6e0" stroke-width="3" stroke-miterlimit="10" pointer-events="none"/><rect x="-3" y="59.48" width="60" height="28" fill="#7ea6e0" stroke="#7ea6e0" transform="rotate(-240,27,73.48)" pointer-events="none"/><rect x="97" y="59.48" width="60" height="28" fill="#7ea6e0" stroke="#7ea6e0" transform="rotate(-120,127,73.48)" pointer-events="none"/><rect x="-3" y="59.48" width="60" height="28" fill="#7ea6e0" stroke="#7ea6e0" transform="rotate(-420,27,73.48)" pointer-events="none"/><rect x="147" y="0" width="60" height="28" fill="#7ea6e0" stroke="#7ea6e0" transform="rotate(-180,177,14)" pointer-events="none"/><rect x="97" y="60" width="60" height="28" fill="#7ea6e0" stroke="#7ea6e0" transform="rotate(-120,127,74)" pointer-events="none"/><path d="M 147 21 L 118.1 21 L 118.06 44.52" fill="none" stroke="#7ea6e0" stroke-width="3" stroke-miterlimit="10" pointer-events="none"/><path d="M 205.93 96.48 L 148.06 96.48" fill="none" stroke="#7ea6e0" stroke-width="3" stroke-miterlimit="10" pointer-events="none"/><rect x="197" y="60" width="60" height="28" fill="#7ea6e0" stroke="#7ea6e0" transform="rotate(-420,227,74)" pointer-events="none"/><path d="M 207 21 L 235.9 21 L 235.93 44.52" fill="none" stroke="#7ea6e0" stroke-width="3" stroke-miterlimit="10" pointer-events="none"/><rect x="247" y="121" width="60" height="28" fill="#7ea6e0" stroke="#7ea6e0" transform="rotate(-180,277,135)" pointer-events="none"/><path d="M 247 142 L 218 142 L 218 166" fill="none" stroke="#7ea6e0" stroke-width="3" stroke-miterlimit="10" pointer-events="none"/><path d="M 307 142 L 336 142 L 336 166" fill="none" stroke="#7ea6e0" stroke-width="3" stroke-miterlimit="10" pointer-events="none"/><path d="M 307 128 L 335.9 128 L 335.93 104.48" fill="none" stroke="#7ea6e0" stroke-width="3" stroke-miterlimit="10" pointer-events="none"/><path d="M 247 127.48 L 218.1 127.5 L 218.06 103.96" fill="none" stroke="#7ea6e0" stroke-width="3" stroke-miterlimit="10" pointer-events="none"/><path d="M 307 127.48 L 335.9 127.5 L 335.94 103.96" fill="none" stroke="#7ea6e0" stroke-width="3" stroke-miterlimit="10" pointer-events="none"/><rect x="247" y="120.48" width="60" height="28" fill="#7ea6e0" stroke="#7ea6e0" pointer-events="none"/><rect x="297" y="60.48" width="60" height="28" fill="#7ea6e0" stroke="#7ea6e0" transform="rotate(60,327,74.48)" pointer-events="none"/><path d="M 248.06 52 L 305.94 52" fill="none" stroke="#7ea6e0" stroke-width="3" stroke-miterlimit="10" pointer-events="none"/><rect x="197" y="60.48" width="60" height="28" fill="#7ea6e0" stroke="#7ea6e0" transform="rotate(-240,227,74.48)" pointer-events="none"/><rect x="297" y="60.48" width="60" height="28" fill="#7ea6e0" stroke="#7ea6e0" transform="rotate(-120,327,74.48)" pointer-events="none"/><rect x="197" y="60.48" width="60" height="28" fill="#7ea6e0" stroke="#7ea6e0" transform="rotate(-420,227,74.48)" pointer-events="none"/><rect x="297" y="61" width="60" height="28" fill="#7ea6e0" stroke="#7ea6e0" transform="rotate(-120,327,75)" pointer-events="none"/></g></svg>