<?xml version="1.0" encoding="UTF-8"?>
<!DOCTYPE svg PUBLIC "-//W3C//DTD SVG 1.1//EN" "http://www.w3.org/Graphics/SVG/1.1/DTD/svg11.dtd">
<svg xmlns="http://www.w3.org/2000/svg" xmlns:xlink="http://www.w3.org/1999/xlink" version="1.1" width="723px" height="448px" viewBox="-0.5 -0.5 723 448" style="background-color: rgb(255, 255, 255);"><defs/><g><path d="M 40 57 L 85 116.2 C 85 121.72 80.26 127.01 71.82 130.91 C 63.38 134.81 51.93 137 40 137 C 15.15 137 -5 127.69 -5 116.2 Z" fill="#f5f5f5" stroke="#666666" stroke-miterlimit="10" transform="rotate(90,40,97)" pointer-events="none"/><path d="M 21.13 133.78 C 11.11 124.55 5.29 111.64 5.01 98.03 C 4.73 84.41 10.02 71.27 19.64 61.64 L 26.01 68.01 C 18.11 75.9 13.78 86.68 14.01 97.84 C 14.24 109.01 19.01 119.59 27.22 127.16 Z" fill="#f5f5f5" stroke="#666666" stroke-miterlimit="10" pointer-events="none"/><path d="M 31.53 122.97 C 24.36 116.49 20.19 107.33 20.01 97.66 C 19.82 88 23.65 78.69 30.57 71.94 L 34.96 76.45 C 29.29 81.98 26.15 89.62 26.31 97.54 C 26.46 105.47 29.88 112.98 35.76 118.29 Z" fill="#f5f5f5" stroke="#666666" stroke-miterlimit="10" pointer-events="none"/><path d="M 38.47 115.76 C 33.16 111.08 30.09 104.37 30 97.3 C 29.92 90.22 32.84 83.44 38.03 78.64 L 41.09 81.94 C 36.83 85.88 34.43 91.44 34.5 97.24 C 34.57 103.05 37.09 108.55 41.45 112.38 Z" fill="#f5f5f5" stroke="#666666" stroke-miterlimit="10" pointer-events="none"/><path d="M 53.01 81.62 L 65.88 101.72 C 65.88 104.35 64.52 106.86 62.11 108.72 C 59.69 110.58 56.42 111.62 53.01 111.62 C 49.59 111.62 46.32 110.58 43.9 108.72 C 41.49 106.86 40.13 104.35 40.13 101.72 Z" fill="#f5f5f5" stroke="#666666" stroke-miterlimit="10" transform="rotate(90,53.01,96.62)" pointer-events="none"/><path d="M 40 157 L 85 216.2 C 85 221.72 80.26 227.01 71.82 230.91 C 63.38 234.81 51.93 237 40 237 C 15.15 237 -5 227.69 -5 216.2 Z" fill="#f5f5f5" stroke="#666666" stroke-miterlimit="10" transform="rotate(90,40,197)" pointer-events="none"/><path d="M 21.13 233.78 C 11.11 224.55 5.29 211.64 5.01 198.03 C 4.73 184.41 10.02 171.27 19.64 161.64 L 26.01 168.01 C 18.11 175.9 13.78 186.68 14.01 197.84 C 14.24 209.01 19.01 219.59 27.22 227.16 Z" fill="#f5f5f5" stroke="#666666" stroke-miterlimit="10" pointer-events="none"/><path d="M 31.53 222.97 C 24.36 216.49 20.19 207.33 20.01 197.66 C 19.82 188 23.65 178.69 30.57 171.94 L 34.96 176.45 C 29.29 181.98 26.15 189.62 26.31 197.54 C 26.46 205.47 29.88 212.98 35.76 218.29 Z" fill="#f5f5f5" stroke="#666666" stroke-miterlimit="10" pointer-events="none"/><path d="M 38.47 215.76 C 33.16 211.08 30.09 204.37 30 197.3 C 29.92 190.22 32.84 183.44 38.03 178.64 L 41.09 181.94 C 36.83 185.88 34.43 191.44 34.5 197.24 C 34.57 203.05 37.09 208.55 41.45 212.38 Z" fill="#f5f5f5" stroke="#666666" stroke-miterlimit="10" pointer-events="none"/><path d="M 53.01 181.62 L 65.88 201.72 C 65.88 204.35 64.52 206.86 62.11 208.72 C 59.69 210.58 56.42 211.62 53.01 211.62 C 49.59 211.62 46.32 210.58 43.9 208.72 C 41.49 206.86 40.13 204.35 40.13 201.72 Z" fill="#f5f5f5" stroke="#666666" stroke-miterlimit="10" transform="rotate(90,53.01,196.62)" pointer-events="none"/><path d="M 40 257 L 85 316.2 C 85 321.72 80.26 327.01 71.82 330.91 C 63.38 334.81 51.93 337 40 337 C 15.15 337 -5 327.69 -5 316.2 Z" fill="#f5f5f5" stroke="#666666" stroke-miterlimit="10" transform="rotate(90,40,297)" pointer-events="none"/><path d="M 21.13 333.78 C 11.11 324.55 5.29 311.64 5.01 298.03 C 4.73 284.41 10.02 271.27 19.64 261.64 L 26.01 268.01 C 18.11 275.9 13.78 286.68 14.01 297.84 C 14.24 309.01 19.01 319.59 27.22 327.16 Z" fill="#f5f5f5" stroke="#666666" stroke-miterlimit="10" pointer-events="none"/><path d="M 31.53 322.97 C 24.36 316.49 20.19 307.33 20.01 297.66 C 19.82 288 23.65 278.69 30.57 271.94 L 34.96 276.45 C 29.29 281.98 26.15 289.62 26.31 297.54 C 26.46 305.47 29.88 312.98 35.76 318.29 Z" fill="#f5f5f5" stroke="#666666" stroke-miterlimit="10" pointer-events="none"/><path d="M 38.47 315.76 C 33.16 311.08 30.09 304.37 30 297.3 C 29.92 290.22 32.84 283.44 38.03 278.64 L 41.09 281.94 C 36.83 285.88 34.43 291.44 34.5 297.24 C 34.57 303.05 37.09 308.55 41.45 312.38 Z" fill="#f5f5f5" stroke="#666666" stroke-miterlimit="10" pointer-events="none"/><path d="M 53.01 281.62 L 65.88 301.72 C 65.88 304.35 64.52 306.86 62.11 308.72 C 59.69 310.58 56.42 311.62 53.01 311.62 C 49.59 311.62 46.32 310.58 43.9 308.72 C 41.49 306.86 40.13 304.35 40.13 301.72 Z" fill="#f5f5f5" stroke="#666666" stroke-miterlimit="10" transform="rotate(90,53.01,296.62)" pointer-events="none"/><path d="M 40 357 L 85 416.2 C 85 421.72 80.26 427.01 71.82 430.91 C 63.38 434.81 51.93 437 40 437 C 15.15 437 -5 427.69 -5 416.2 Z" fill="#f5f5f5" stroke="#666666" stroke-miterlimit="10" transform="rotate(90,40,397)" pointer-events="none"/><path d="M 21.13 433.78 C 11.11 424.55 5.29 411.64 5.01 398.03 C 4.73 384.41 10.02 371.27 19.64 361.64 L 26.01 368.01 C 18.11 375.9 13.78 386.68 14.01 397.84 C 14.24 409.01 19.01 419.59 27.22 427.16 Z" fill="#f5f5f5" stroke="#666666" stroke-miterlimit="10" pointer-events="none"/><path d="M 31.53 422.97 C 24.36 416.49 20.19 407.33 20.01 397.66 C 19.82 388 23.65 378.69 30.57 371.94 L 34.96 376.45 C 29.29 381.98 26.15 389.62 26.31 397.54 C 26.46 405.47 29.88 412.98 35.76 418.29 Z" fill="#f5f5f5" stroke="#666666" stroke-miterlimit="10" pointer-events="none"/><path d="M 38.47 415.76 C 33.16 411.08 30.09 404.37 30 397.3 C 29.92 390.22 32.84 383.44 38.03 378.64 L 41.09 381.94 C 36.83 385.88 34.43 391.44 34.5 397.24 C 34.57 403.05 37.09 408.55 41.45 412.38 Z" fill="#f5f5f5" stroke="#666666" stroke-miterlimit="10" pointer-events="none"/><path d="M 53.01 381.62 L 65.88 401.72 C 65.88 404.35 64.52 406.86 62.11 408.72 C 59.69 410.58 56.42 411.62 53.01 411.62 C 49.59 411.62 46.32 410.58 43.9 408.72 C 41.49 406.86 40.13 404.35 40.13 401.72 Z" fill="#f5f5f5" stroke="#666666" stroke-miterlimit="10" transform="rotate(90,53.01,396.62)" pointer-events="none"/><path d="M 682 157 L 727 216.2 C 727 221.72 722.26 227.01 713.82 230.91 C 705.38 234.81 693.93 237 682 237 C 657.15 237 637 227.69 637 216.2 Z" fill="#f5f5f5" stroke="#666666" stroke-miterlimit="10" transform="rotate(-90,682,197)" pointer-events="none"/><path d="M 633.13 233.78 C 623.11 224.55 617.29 211.64 617.01 198.03 C 616.73 184.41 622.02 171.27 631.64 161.64 L 638.01 168.01 C 630.11 175.9 625.78 186.68 626.01 197.84 C 626.24 209.01 631.01 219.59 639.22 227.16 Z" fill="#f5f5f5" stroke="#666666" stroke-miterlimit="10" transform="rotate(-180,667,197)" pointer-events="none"/><path d="M 643.53 222.97 C 636.36 216.49 632.19 207.33 632.01 197.66 C 631.82 188 635.65 178.69 642.57 171.94 L 646.96 176.45 C 641.29 181.98 638.15 189.62 638.31 197.54 C 638.46 205.47 641.88 212.98 647.76 218.29 Z" fill="#f5f5f5" stroke="#666666" stroke-miterlimit="10" transform="rotate(-180,667,197)" pointer-events="none"/><path d="M 650.47 215.76 C 645.16 211.08 642.09 204.37 642 197.3 C 641.92 190.22 644.84 183.44 650.03 178.64 L 653.09 181.94 C 648.83 185.88 646.43 191.44 646.5 197.24 C 646.57 203.05 649.09 208.55 653.45 212.38 Z" fill="#f5f5f5" stroke="#666666" stroke-miterlimit="10" transform="rotate(-180,667,197)" pointer-events="none"/><path d="M 668.88 182 L 681.75 202.1 C 681.75 204.73 680.39 207.24 677.98 209.1 C 675.56 210.96 672.29 212 668.88 212 C 665.46 212 662.19 210.96 659.77 209.1 C 657.36 207.24 656 204.73 656 202.1 Z" fill="#f5f5f5" stroke="#666666" stroke-miterlimit="10" transform="rotate(-90,668.88,197)" pointer-events="none"/><path d="M 682 57 L 727 116.2 C 727 121.72 722.26 127.01 713.82 130.91 C 705.38 134.81 693.93 137 682 137 C 657.15 137 637 127.69 637 116.2 Z" fill="#f5f5f5" stroke="#666666" stroke-miterlimit="10" transform="rotate(-90,682,97)" pointer-events="none"/><path d="M 633.13 133.78 C 623.11 124.55 617.29 111.64 617.01 98.03 C 616.73 84.41 622.02 71.27 631.64 61.64 L 638.01 68.01 C 630.11 75.9 625.78 86.68 626.01 97.84 C 626.24 109.01 631.01 119.59 639.22 127.16 Z" fill="#f5f5f5" stroke="#666666" stroke-miterlimit="10" transform="rotate(-180,667,97)" pointer-events="none"/><path d="M 643.53 122.97 C 636.36 116.49 632.19 107.33 632.01 97.66 C 631.82 88 635.65 78.69 642.57 71.94 L 646.96 76.45 C 641.29 81.98 638.15 89.62 638.31 97.54 C 638.46 105.47 641.88 112.98 647.76 118.29 Z" fill="#f5f5f5" stroke="#666666" stroke-miterlimit="10" transform="rotate(-180,667,97)" pointer-events="none"/><path d="M 650.47 115.76 C 645.16 111.08 642.09 104.37 642 97.3 C 641.92 90.22 644.84 83.44 650.03 78.64 L 653.09 81.94 C 648.83 85.88 646.43 91.44 646.5 97.24 C 646.57 103.05 649.09 108.55 653.45 112.38 Z" fill="#f5f5f5" stroke="#666666" stroke-miterlimit="10" transform="rotate(-180,667,97)" pointer-events="none"/><path d="M 668.88 82 L 681.75 102.1 C 681.75 104.73 680.39 107.24 677.98 109.1 C 675.56 110.96 672.29 112 668.88 112 C 665.46 112 662.19 110.96 659.77 109.1 C 657.36 107.24 656 104.73 656 102.1 Z" fill="#f5f5f5" stroke="#666666" stroke-miterlimit="10" transform="rotate(-90,668.88,97)" pointer-events="none"/><path d="M 682 357 L 727 416.2 C 727 421.72 722.26 427.01 713.82 430.91 C 705.38 434.81 693.93 437 682 437 C 657.15 437 637 427.69 637 416.2 Z" fill="#f5f5f5" stroke="#666666" stroke-miterlimit="10" transform="rotate(-90,682,397)" pointer-events="none"/><path d="M 633.13 433.78 C 623.11 424.55 617.29 411.64 617.01 398.03 C 616.73 384.41 622.02 371.27 631.64 361.64 L 638.01 368.01 C 630.11 375.9 625.78 386.68 626.01 397.84 C 626.24 409.01 631.01 419.59 639.22 427.16 Z" fill="#f5f5f5" stroke="#666666" stroke-miterlimit="10" transform="rotate(-180,667,397)" pointer-events="none"/><path d="M 643.53 422.97 C 636.36 416.49 632.19 407.33 632.01 397.66 C 631.82 388 635.65 378.69 642.57 371.94 L 646.96 376.45 C 641.29 381.98 638.15 389.62 638.31 397.54 C 638.46 405.47 641.88 412.98 647.76 418.29 Z" fill="#f5f5f5" stroke="#666666" stroke-miterlimit="10" transform="rotate(-180,667,397)" pointer-events="none"/><path d="M 650.47 415.76 C 645.16 411.08 642.09 404.37 642 397.3 C 641.92 390.22 644.84 383.44 650.03 378.64 L 653.09 381.94 C 648.83 385.88 646.43 391.44 646.5 397.24 C 646.57 403.05 649.09 408.55 653.45 412.38 Z" fill="#f5f5f5" stroke="#666666" stroke-miterlimit="10" transform="rotate(-180,667,397)" pointer-events="none"/><path d="M 668.88 382 L 681.75 402.1 C 681.75 404.73 680.39 407.24 677.98 409.1 C 675.56 410.96 672.29 412 668.88 412 C 665.46 412 662.19 410.96 659.77 409.1 C 657.36 407.24 656 404.73 656 402.1 Z" fill="#f5f5f5" stroke="#666666" stroke-miterlimit="10" transform="rotate(-90,668.88,397)" pointer-events="none"/><path d="M 682 257 L 727 316.2 C 727 321.72 722.26 327.01 713.82 330.91 C 705.38 334.81 693.93 337 682 337 C 657.15 337 637 327.69 637 316.2 Z" fill="#f5f5f5" stroke="#666666" stroke-miterlimit="10" transform="rotate(-90,682,297)" pointer-events="none"/><path d="M 633.13 333.78 C 623.11 324.55 617.29 311.64 617.01 298.03 C 616.73 284.41 622.02 271.27 631.64 261.64 L 638.01 268.01 C 630.11 275.9 625.78 286.68 626.01 297.84 C 626.24 309.01 631.01 319.59 639.22 327.16 Z" fill="#f5f5f5" stroke="#666666" stroke-miterlimit="10" transform="rotate(-180,667,297)" pointer-events="none"/><path d="M 643.53 322.97 C 636.36 316.49 632.19 307.33 632.01 297.66 C 631.82 288 635.65 278.69 642.57 271.94 L 646.96 276.45 C 641.29 281.98 638.15 289.62 638.31 297.54 C 638.46 305.47 641.88 312.98 647.76 318.29 Z" fill="#f5f5f5" stroke="#666666" stroke-miterlimit="10" transform="rotate(-180,667,297)" pointer-events="none"/><path d="M 650.47 315.76 C 645.16 311.08 642.09 304.37 642 297.3 C 641.92 290.22 644.84 283.44 650.03 278.64 L 653.09 281.94 C 648.83 285.88 646.43 291.44 646.5 297.24 C 646.57 303.05 649.09 308.55 653.45 312.38 Z" fill="#f5f5f5" stroke="#666666" stroke-miterlimit="10" transform="rotate(-180,667,297)" pointer-events="none"/><path d="M 668.88 282 L 681.75 302.1 C 681.75 304.73 680.39 307.24 677.98 309.1 C 675.56 310.96 672.29 312 668.88 312 C 665.46 312 662.19 310.96 659.77 309.1 C 657.36 307.24 656 304.73 656 302.1 Z" fill="#f5f5f5" stroke="#666666" stroke-miterlimit="10" transform="rotate(-90,668.88,297)" pointer-events="none"/><path d="M 349.83 204.79 L 349.83 238.71" fill="none" stroke="#7ea6e0" stroke-width="3" stroke-miterlimit="10" pointer-events="none"/><rect x="311" y="161" width="60" height="28.5" fill="#7ea6e0" stroke="#7ea6e0" transform="rotate(60,341,175.25)" pointer-events="none"/><path d="M 202.17 290.67 L 231 311.13" fill="none" stroke="#7ea6e0" stroke-width="3" stroke-miterlimit="10" pointer-events="none"/><path d="M 159.83 245.83 L 159.8 224 L 110 224 L 110 297 L 80 297" fill="none" stroke="#7ea6e0" stroke-width="3" stroke-miterlimit="10" pointer-events="none"/><rect x="151" y="254" width="60" height="28.5" fill="#7ea6e0" stroke="#7ea6e0" transform="rotate(60,181,268.25)" pointer-events="none"/><path d="M 319.83 290.67 L 291 311.13" fill="none" stroke="#7ea6e0" stroke-width="3" stroke-miterlimit="10" pointer-events="none"/><rect x="311" y="254" width="60" height="28.5" fill="#7ea6e0" stroke="#7ea6e0" transform="rotate(-60,341,268.25)" pointer-events="none"/><path d="M 231 132.38 L 202.17 152.83" fill="none" stroke="#7ea6e0" stroke-width="3" stroke-miterlimit="10" pointer-events="none"/><path d="M 291 132.38 L 319.83 152.83" fill="none" stroke="#7ea6e0" stroke-width="3" stroke-miterlimit="10" pointer-events="none"/><rect x="231" y="111" width="60" height="28.5" fill="#7ea6e0" stroke="#7ea6e0" pointer-events="none"/><rect x="231" y="304" width="60" height="28.5" fill="#7ea6e0" stroke="#7ea6e0" pointer-events="none"/><path d="M 172.17 204.79 L 172.17 238.71" fill="none" stroke="#7ea6e0" stroke-width="3" stroke-miterlimit="10" pointer-events="none"/><path d="M 189.83 145.71 L 189.8 124 L 190 97 L 80 97" fill="none" stroke="#7ea6e0" stroke-width="3" stroke-miterlimit="10" pointer-events="none"/><path d="M 159.83 197.67 L 116.8 197.7 L 80 197" fill="none" stroke="#7ea6e0" stroke-width="4" stroke-miterlimit="10" pointer-events="none"/><rect x="151" y="161" width="60" height="28.5" fill="#7ea6e0" stroke="#7ea6e0" transform="rotate(-60,181,175.25)" pointer-events="none"/><path d="M 509.83 297.29 L 509.83 331.21" fill="none" stroke="#7ea6e0" stroke-width="3" stroke-miterlimit="10" pointer-events="none"/><rect x="471" y="253.5" width="60" height="28.5" fill="#7ea6e0" stroke="#7ea6e0" transform="rotate(60,501,267.75)" pointer-events="none"/><path d="M 362.17 383.17 L 391 403.63" fill="none" stroke="#7ea6e0" stroke-width="3" stroke-miterlimit="10" pointer-events="none"/><path d="M 479.83 383.17 L 451 403.63" fill="none" stroke="#7ea6e0" stroke-width="3" stroke-miterlimit="10" pointer-events="none"/><rect x="471" y="346.5" width="60" height="28.5" fill="#7ea6e0" stroke="#7ea6e0" transform="rotate(-60,501,360.75)" pointer-events="none"/><path d="M 391 224.88 L 362.17 245.33" fill="none" stroke="#7ea6e0" stroke-width="3" stroke-miterlimit="10" pointer-events="none"/><path d="M 451 224.88 L 479.83 245.33" fill="none" stroke="#7ea6e0" stroke-width="3" stroke-miterlimit="10" pointer-events="none"/><rect x="391" y="203.5" width="60" height="28.5" fill="#7ea6e0" stroke="#7ea6e0" pointer-events="none"/><path d="M 391 417.88 L 321 418.5" fill="none" stroke="#7ea6e0" stroke-width="3" stroke-miterlimit="10" pointer-events="none"/><rect x="391" y="396.5" width="60" height="28.5" fill="#7ea6e0" stroke="#7ea6e0" pointer-events="none"/><rect x="311" y="253.5" width="60" height="28.5" fill="#7ea6e0" stroke="#7ea6e0" transform="rotate(-60,341,267.75)" pointer-events="none"/><path d="M 189.83 297.79 L 189.83 339.21" fill="none" stroke="#7ea6e0" stroke-width="3" stroke-miterlimit="10" pointer-events="none"/><path d="M 172.17 398.29 L 172.2 418.5 L 211 418.5" fill="none" stroke="#7ea6e0" stroke-width="3" stroke-miterlimit="10" pointer-events="none"/><rect x="151" y="354.5" width="60" height="28.5" fill="#7ea6e0" stroke="#7ea6e0" transform="rotate(-60,181,368.75)" pointer-events="none"/><path d="M 332.17 338.71 L 332.17 297.79" fill="none" stroke="#7ea6e0" stroke-width="3" stroke-miterlimit="10" pointer-events="none"/><rect x="311" y="354" width="60" height="28.5" fill="#7ea6e0" stroke="#7ea6e0" transform="rotate(60,341,368.25)" pointer-events="none"/><path d="M 231 325.38 L 202.17 345.83" fill="none" stroke="#7ea6e0" stroke-width="3" stroke-miterlimit="10" pointer-events="none"/><path d="M 291 325.38 L 319.83 345.83" fill="none" stroke="#7ea6e0" stroke-width="3" stroke-miterlimit="10" pointer-events="none"/><rect x="231" y="304" width="60" height="28.5" fill="#7ea6e0" stroke="#7ea6e0" pointer-events="none"/><path d="M 159.83 390.67 L 159.8 397 L 80 397" fill="none" stroke="#7ea6e0" stroke-width="3" stroke-miterlimit="10" pointer-events="none"/><rect x="151" y="354" width="60" height="28.5" fill="#7ea6e0" stroke="#7ea6e0" transform="rotate(-60,181,368.25)" pointer-events="none"/><rect x="311" y="61" width="60" height="28.5" fill="#7ea6e0" stroke="#7ea6e0" transform="rotate(-60,341,75.25)" pointer-events="none"/><path d="M 509.83 104.29 L 509.83 138.21" fill="none" stroke="#7ea6e0" stroke-width="3" stroke-miterlimit="10" pointer-events="none"/><path d="M 522.17 97.17 L 521 97.2 L 642 97" fill="none" stroke="#7ea6e0" stroke-width="3" stroke-miterlimit="10" pointer-events="none"/><rect x="471" y="60.5" width="60" height="28.5" fill="#7ea6e0" stroke="#7ea6e0" transform="rotate(60,501,74.75)" pointer-events="none"/><path d="M 362.17 190.17 L 391 210.63" fill="none" stroke="#7ea6e0" stroke-width="3" stroke-miterlimit="10" pointer-events="none"/><path d="M 479.83 190.17 L 451 210.63" fill="none" stroke="#7ea6e0" stroke-width="3" stroke-miterlimit="10" pointer-events="none"/><path d="M 492.17 197.29 L 492.17 238.21" fill="none" stroke="#7ea6e0" stroke-width="3" stroke-miterlimit="10" pointer-events="none"/><path d="M 522.17 145.33 L 585.2 145.3 L 585.2 197 L 642 197" fill="none" stroke="#7ea6e0" stroke-width="3" stroke-miterlimit="10" pointer-events="none"/><rect x="471" y="153.5" width="60" height="28.5" fill="#7ea6e0" stroke="#7ea6e0" transform="rotate(-60,501,167.75)" pointer-events="none"/><path d="M 391 31.88 L 362.17 52.33" fill="none" stroke="#7ea6e0" stroke-width="3" stroke-miterlimit="10" pointer-events="none"/><path d="M 451 31.88 L 479.83 52.33" fill="none" stroke="#7ea6e0" stroke-width="3" stroke-miterlimit="10" pointer-events="none"/><path d="M 391 17.63 L 314 17.5" fill="none" stroke="#7ea6e0" stroke-width="3" stroke-miterlimit="10" pointer-events="none"/><rect x="391" y="10.5" width="60" height="28.5" fill="#7ea6e0" stroke="#7ea6e0" pointer-events="none"/><rect x="391" y="203.5" width="60" height="28.5" fill="#7ea6e0" stroke="#7ea6e0" pointer-events="none"/><path d="M 332.17 104.29 L 332.17 145.71" fill="none" stroke="#7ea6e0" stroke-width="3" stroke-miterlimit="10" pointer-events="none"/><rect x="311" y="60.5" width="60" height="28.5" fill="#7ea6e0" stroke="#7ea6e0" transform="rotate(-60,341,74.75)" pointer-events="none"/><path d="M 642 297 L 520 297 L 520 290.2 L 522.17 290.17" fill="none" stroke="#7ea6e0" stroke-width="3" stroke-miterlimit="10" pointer-events="none"/><path d="M 642 397 L 585.2 397 L 585.2 338.3 L 522.17 338.33" fill="none" stroke="#7ea6e0" stroke-width="3" stroke-miterlimit="10" pointer-events="none"/><rect x="211" y="401" width="110" height="35" fill="#f8cecc" stroke="#b85450" pointer-events="none"/><rect x="211" y="401" width="110" height="35" fill="#e1d5e7" stroke="#9673a6" pointer-events="none"/><path d="M 211 418.5 L 321 418.5" fill="none" stroke="#b5739d" stroke-width="3" stroke-miterlimit="10" pointer-events="none"/><rect x="216" y="423" width="100.83" height="7.5" fill="#ffe6cc" stroke="#d79b00" pointer-events="none"/><rect x="216" y="406" width="100.83" height="7.5" fill="#ffe6cc" stroke="#d79b00" pointer-events="none"/><rect x="204" y="0" width="110" height="35" fill="#f8cecc" stroke="#b85450" pointer-events="none"/><rect x="204" y="0" width="110" height="35" fill="#e1d5e7" stroke="#9673a6" pointer-events="none"/><path d="M 204 17.5 L 314 17.5" fill="none" stroke="#b5739d" stroke-width="3" stroke-miterlimit="10" pointer-events="none"/><rect x="209" y="22" width="100.83" height="7.5" fill="#ffe6cc" stroke="#d79b00" pointer-events="none"/><rect x="209" y="5" width="100.83" height="7.5" fill="#ffe6cc" stroke="#d79b00" pointer-events="none"/><path d="M 204 17.5 L 200 17.5 L 200 118.1 L 231 118.13" fill="none" stroke="#7ea6e0" stroke-width="3" stroke-miterlimit="10" pointer-events="none"/></g></svg>